<?xml version="1.0" standalone="no"?>
<!DOCTYPE svg PUBLIC "-//W3C//DTD SVG 20010904//EN"
 "http://www.w3.org/TR/2001/REC-SVG-20010904/DTD/svg10.dtd">
<svg version="1.0" xmlns="http://www.w3.org/2000/svg"
 width="200.000000pt" height="200.000000pt" viewBox="0 0 200.000000 200.000000"
 preserveAspectRatio="xMidYMid meet">

<g transform="translate(0.000000,200.000000) scale(0.100000,-0.100000)"
fill="#3b3b3b" stroke="none">
<path d="M1502 1664 c40 -56 148 -168 155 -160 9 9 -17 74 -47 115 -25 33
-110 91 -135 91 -4 0 9 -21 27 -46z"/>
<path d="M450 1670 c-50 -26 -87 -68 -105 -119 -8 -24 -15 -48 -15 -54 0 -16
84 68 137 136 46 59 42 69 -17 37z"/>
<path d="M1655 1603 c16 -37 55 -166 52 -169 -1 -2 -38 24 -81 58 -64 50 -77
57 -71 37 11 -35 31 -58 115 -131 l75 -66 3 71 c4 87 -8 130 -48 180 -33 39
-58 50 -45 20z"/>
<path d="M281 1560 c-33 -45 -47 -121 -35 -196 l7 -46 79 79 c74 73 116 129
105 140 -3 2 -39 -26 -81 -62 l-76 -66 7 33 c3 18 14 57 25 87 10 30 18 58 18
63 0 19 -22 5 -49 -32z"/>
<path d="M906 1252 c-118 -280 -146 -332 -176 -332 -11 0 -20 -4 -20 -10 0 -6
37 -10 90 -10 53 0 90 4 90 10 0 6 -11 10 -25 10 -48 0 -50 35 -5 133 l21 48
117 -3 117 -3 29 -72 c25 -60 27 -74 16 -87 -7 -9 -21 -16 -31 -16 -11 0 -19
-4 -19 -10 0 -6 45 -10 115 -10 63 0 115 2 115 6 0 3 -13 10 -29 15 -16 6 -36
21 -45 33 -11 17 -170 387 -233 544 -3 6 -8 12 -12 12 -3 0 -55 -116 -115
-258z m148 -7 l45 -110 -96 -3 c-53 -1 -98 0 -101 2 -3 3 17 57 44 121 26 63
51 112 55 107 4 -4 28 -56 53 -117z"/>
<path d="M183 1423 c-24 -65 -22 -142 7 -237 20 -66 26 -76 34 -62 6 10 37 58
68 108 56 88 84 148 70 148 -15 0 -100 -96 -120 -135 l-21 -40 -3 85 c-1 47
-3 106 -3 133 0 26 -3 47 -7 47 -3 0 -15 -21 -25 -47z"/>
<path d="M1780 1432 c0 -22 -3 -73 -6 -115 l-7 -76 -27 42 c-30 46 -110 116
-110 95 0 -15 43 -90 110 -191 l45 -68 22 73 c27 87 30 181 7 238 -20 51 -34
51 -34 2z"/>
<path d="M1857 1235 c-4 -16 -24 -74 -44 -129 l-37 -99 -12 46 c-6 24 -27 72
-45 106 -30 55 -34 59 -37 36 -2 -14 7 -62 19 -108 12 -45 27 -111 33 -146
l12 -64 52 77 c64 95 74 129 70 231 -2 61 -5 73 -11 50z"/>
<path d="M126 1210 c-9 -44 7 -158 27 -197 9 -16 35 -54 58 -83 l43 -54 11 55
c6 29 22 100 34 156 13 57 21 108 18 115 -7 21 -76 -128 -86 -184 -5 -29 -9
-44 -10 -33 -1 11 -11 45 -22 75 -11 30 -31 84 -44 120 l-23 65 -6 -35z"/>
<path d="M313 994 c-5 -10 -8 -66 -8 -124 l0 -105 -50 58 c-27 32 -69 83 -93
114 -40 53 -42 54 -42 27 0 -16 13 -57 29 -90 30 -64 103 -133 193 -184 l41
-23 -7 24 c-3 13 -16 89 -27 169 -11 80 -22 147 -24 149 -3 2 -8 -5 -12 -15z"/>
<path d="M1667 988 c-3 -13 -11 -70 -17 -128 -6 -58 -16 -120 -22 -138 -5 -18
-8 -36 -5 -39 9 -8 114 66 163 115 53 53 79 101 88 162 5 38 4 42 -6 26 -15
-22 -70 -89 -134 -165 -29 -34 -44 -46 -40 -33 3 12 9 32 12 43 7 26 -15 179
-26 179 -4 0 -10 -10 -13 -22z"/>
<path d="M1585 810 c-14 -23 -42 -82 -60 -130 -19 -49 -42 -101 -51 -115 -9
-14 -14 -29 -10 -32 15 -15 161 32 217 69 49 33 129 126 129 151 0 4 -24 -10
-52 -31 -51 -37 -208 -127 -208 -119 0 3 9 25 20 50 19 42 52 188 45 195 -2 2
-15 -15 -30 -38z"/>
<path d="M394 777 c7 -65 36 -150 62 -178 22 -24 10 -24 -24 0 -15 10 -54 32
-88 49 -33 17 -82 47 -107 66 -26 20 -47 34 -47 31 0 -31 111 -150 167 -178
30 -16 183 -49 183 -39 0 3 -11 28 -24 56 -14 28 -38 85 -55 126 -17 41 -41
86 -52 100 l-21 25 6 -58z"/>
<path d="M530 620 c34 -67 59 -100 94 -121 l31 -20 -35 6 c-19 3 -74 9 -121
15 -48 5 -103 16 -123 24 -81 34 -4 -38 81 -76 55 -24 150 -22 251 7 l64 18
-46 22 c-25 12 -75 48 -111 81 -37 32 -76 66 -87 74 -20 14 -20 13 2 -30z"/>
<path d="M1387 580 c-49 -44 -101 -81 -117 -85 -52 -11 -41 -21 43 -39 108
-24 183 -23 239 2 42 18 123 81 115 88 -2 3 -24 -4 -48 -15 -35 -15 -190 -41
-249 -41 -5 0 8 17 31 37 39 36 83 106 77 123 -2 5 -43 -26 -91 -70z"/>
<path d="M735 429 c-100 -37 -117 -40 -184 -36 l-74 4 39 -24 c52 -32 73 -36
152 -31 60 3 76 9 152 56 53 32 97 52 115 52 29 0 28 -1 -20 -32 -72 -45 -135
-98 -135 -114 0 -26 31 -14 78 30 63 59 120 96 147 96 22 0 132 -78 169 -119
22 -24 42 -27 49 -6 7 17 -29 49 -115 102 -57 35 -60 38 -35 41 17 2 47 -8 75
-24 26 -15 67 -39 92 -53 60 -35 164 -36 227 -3 48 25 69 49 32 36 -50 -18
-141 -6 -236 30 l-92 36 -163 -1 -163 0 -110 -40z"/>
</g>
</svg>
